# WaveFront *.obj file (generated by CINEMA 4D)

mtllib ./25F_bottom_col.mtl

v -579.013916015625 -357.326904296875 1501.349365234375
v 95.10188293457031 -357.326904296875 1501.349365234375
v -579.013916015625 -99.39681243896484 1501.349365234375
v 95.10188293457031 -99.39681243896484 1501.349365234375
v 0.13538770377636 -99.39681243896484 1501.349365234375
v 0.13538770377636 -357.326904296875 1501.349365234375
v 0.13538770377636 -88.90076446533203 1501.349365234375
v 95.10188293457031 -88.90076446533203 1501.349365234375
v 95.10188293457031 -212.60523986816406 1501.349365234375
v 0.13538770377636 -212.60523986816406 1501.349365234375
v -579.013916015625 -212.60523986816406 1501.349365234375
v 95.10188293457031 -245.42506408691406 1501.349365234375
v 0.13538770377636 -245.42506408691406 1501.349365234375
v -579.013916015625 -245.42506408691406 1501.349365234375
v 136.91188049316406 -99.39681243896484 1501.349365234375
v 136.91188049316406 -212.60523986816406 1501.349365234375
v 136.91188049316406 -119.04823303222656 1501.349365234375
v 95.10188293457031 -119.04823303222656 1501.349365234375
v 0.13538770377636 -119.04823303222656 1501.349365234375
v -579.013916015625 -119.04823303222656 1501.349365234375
v 159.94801330566406 -119.04823303222656 1501.349365234375
v 159.94801330566406 -212.60523986816406 1501.349365234375
v 95.10188293457031 -339.06375122070312 1501.349365234375
v 0.13538770377636 -339.06375122070312 1501.349365234375
v -579.013916015625 -339.06375122070312 1501.349365234375
v 119.25341033935547 -245.42506408691406 1501.349365234375
v 119.25341033935547 -339.06375122070312 1501.349365234375
v -443.2525634765625 -99.39681243896484 1501.349365234375
v -443.2525634765625 -119.04823303222656 1501.349365234375
v -443.2525634765625 -212.60523986816406 1501.349365234375
v -443.2525634765625 -245.42506408691406 1501.349365234375
v -443.2525634765625 -339.06375122070312 1501.349365234375
v -443.2525634765625 -357.326904296875 1501.349365234375
v -579.013916015625 -369.60992431640625 1501.349365234375
v -482.21823120117188 -369.60992431640625 1501.349365234375
v -603.69012451171875 -212.60523986816406 1501.349365234375
v -603.69012451171875 -119.04823303222656 1501.349365234375
v -618.918212890625 -339.06375122070312 1501.349365234375
v -618.918212890625 -245.42506408691406 1501.349365234375
v -618.918212890625 -357.326904296875 1501.349365234375
v -644.98431396484375 -339.06375122070312 1501.349365234375
v -644.98431396484375 -245.42506408691406 1501.349365234375
v -482.21823120117188 -357.326904296875 1501.349365234375
v -482.21823120117188 -339.06375122070312 1501.349365234375
v -482.21823120117188 -245.42506408691406 1501.349365234375
v -482.21823120117188 -212.60523986816406 1501.349365234375
v -482.21823120117188 -119.04823303222656 1501.349365234375
v -482.21823120117188 -99.39681243896484 1501.349365234375
v -482.21823120117188 -308.79339599609375 1501.349365234375
v -482.21823120117188 -275.69540405273438 1501.349365234375
v -579.013916015625 -275.69540405273438 1501.349365234375
v -579.013916015625 -308.79339599609375 1501.349365234375
v -618.918212890625 -308.79339599609375 1501.349365234375
v -618.918212890625 -275.69540405273438 1501.349365234375
v -644.98431396484375 -308.79339599609375 1501.349365234375
v -644.98431396484375 -275.69540405273438 1501.349365234375
v -443.2525634765625 -275.69540405273438 1501.349365234375
v -443.2525634765625 -308.79339599609375 1501.349365234375
v 0.13538770377636 -275.69540405273438 1501.349365234375
v 0.13538770377636 -308.79339599609375 1501.349365234375
v 95.10188293457031 -275.69540405273438 1501.349365234375
v 95.10188293457031 -308.79339599609375 1501.349365234375
v 119.25341033935547 -275.69540405273438 1501.349365234375
v 119.25341033935547 -308.79339599609375 1501.349365234375
v -482.21823120117188 -301.25762939453125 1501.349365234375
v -482.21823120117188 -283.231201171875 1501.349365234375
v -579.013916015625 -283.231201171875 1501.349365234375
v -579.013916015625 -301.25762939453125 1501.349365234375
v -618.918212890625 -301.25762939453125 1501.349365234375
v -618.918212890625 -283.231201171875 1501.349365234375
v -644.98431396484375 -301.25762939453125 1501.349365234375
v -644.98431396484375 -283.231201171875 1501.349365234375
v -443.2525634765625 -283.231201171875 1501.349365234375
v -443.2525634765625 -301.25762939453125 1501.349365234375
v 0.13538770377636 -283.231201171875 1501.349365234375
v 0.13538770377636 -301.25762939453125 1501.349365234375
v 95.10188293457031 -283.231201171875 1501.349365234375
v 95.10188293457031 -301.25762939453125 1501.349365234375
v 119.25341033935547 -283.231201171875 1501.349365234375
v 119.25341033935547 -301.25762939453125 1501.349365234375
v -487.3614501953125 -357.326904296875 1501.349365234375
v -487.3614501953125 -339.06375122070312 1501.349365234375
v -487.3614501953125 -308.79339599609375 1501.349365234375
v -487.3614501953125 -301.25762939453125 1501.349365234375
v -487.3614501953125 -283.231201171875 1501.349365234375
v -487.3614501953125 -275.69540405273438 1501.349365234375
v -487.3614501953125 -245.42506408691406 1501.349365234375
v -487.3614501953125 -212.60523986816406 1501.349365234375
v -487.3614501953125 -119.04823303222656 1501.349365234375
v -487.3614501953125 -99.39681243896484 1501.349365234375
v -487.3614501953125 -369.60992431640625 1501.349365234375
# 91 vertices

vn 0 0 1
# 1 normal

vt 0.33469015359879 0.79227012395859 0
vt 0.33382058143616 0.74428832530975 0
vt 0.30962204933167 0.74472689628601 0
vt 0.31049168109894 0.79270869493484 0
vt 0.32392561435699 0.19830584526062 0
vt 0.32180631160736 0.08136534690857 0
vt 0.29760777950287 0.08180391788483 0
vt 0.29972714185715 0.19874441623688 0
vt 0.33685034513474 0.19807159900665 0
vt 0.33473098278046 0.0811311006546 0
vt 0.18240284919739 0.08389174938202 0
vt 0.1419889330864 0.08462417125702 0
vt 0.14410826563835 0.20156478881836 0
vt 0.18452218174934 0.20083236694336 0
vt 0.15400323271751 0.74754720926285 0
vt 0.15487280488014 0.79552900791168 0
vt 0.19528672099113 0.79479658603668 0
vt 0.19441714882851 0.74681478738785 0
vt 0.10471439361572 0.0852997303009 0
vt 0.10683374106884 0.20224034786224 0
vt 0.11759828031063 0.79620456695557 0
vt 0.11672869324684 0.74822270870209 0
vt 0.32087326049805 0.0298810005188 0
vt 0.29667472839355 0.03031957149506 0
vt 0.18146976828575 0.03240740299225 0
vt 0.29616063833237 0.001953125 0
vt 0.18095567822456 0.00404107570648 0
vt 0.0266834013164 0.08671391010284 0
vt 0.00419439282268 0.08712148666382 0
vt 0.00631373096257 0.20406198501587 0
vt 0.02880274131894 0.2036544084549 0
vt 0.01620868593454 0.750044465065 0
vt 0.01707826927304 0.79802632331848 0
vt 0.03956727683544 0.79761874675751 0
vt 0.03869769722223 0.74963688850403 0
vt 0.14144992828369 0.05488431453705 0
vt 0.10417541861534 0.05555987358093 0
vt 0.00206790445372 0.80463373661041 0
vt 0.00411328487098 0.91749340295792 0
vt 0.01923843100667 0.91721928119659 0
vt 0.01719304919243 0.80435955524445 0
vt 0.19744688272476 0.91398960351944 0
vt 0.19799757003784 0.94437557458878 0
vt 0.31320250034332 0.94228768348694 0
vt 0.31265181303024 0.9119017124176 0
vt 0.12064896523952 0.96453523635864 0
vt 0.15792348980904 0.96385967731476 0
vt 0.15703296661377 0.91472202539444 0
vt 0.11975844204426 0.91539752483368 0
vt 0.02012896165252 0.96635693311691 0
vt 0.04261796921492 0.96594941616058 0
vt 0.04172743856907 0.91681170463562 0
vt 0.12123067677021 0.99663269519806 0
vt 0.15850520133972 0.99595719575882 0
vt 0.03968206048012 0.80395197868347 0
vt 0.15498757362366 0.80186229944229 0
vt 0.11771306395531 0.80253779888153 0
vt 0.19540148973465 0.80112987756729 0
vt 0.31060642004013 0.79904198646545 0
vt 0.33480495214462 0.7986034154892 0
vt 0.10831880569458 0.79637271165848 0
vt 0.10843358933926 0.80270600318909 0
vt 0.11047896742821 0.91556572914124 0
vt 0.11136949062347 0.96470338106155 0
vt 0.11195120215416 0.99680089950562 0
vt 0.07597221434116 0.74896138906479 0
vt 0.07684180140495 0.79694318771362 0
vt 0.06607726216316 0.2029789686203 0
vt 0.06395792961121 0.08603835105896 0
vt 0.06341893970966 0.05629849433899 0
vt 0.02614441886544 0.05697405338287 0
vt 0.07695658504963 0.80327647924423 0
vt 0.07900196313858 0.91613620519638 0
vt 0.07989250123501 0.9652738571167 0
vt 0.0431996807456 0.998046875 0
vt 0.08047421276569 0.99737131595612 0
vt 0.10744921863079 0.74839091300964 0
vt 0.09755426645279 0.20240843296051 0
vt 0.09543491899967 0.08546793460846 0
vt 0.09489594399929 0.0557279586792 0
vt 0.086121276021 0.79677498340607 0
vt 0.08623605966568 0.80310833454132 0
vt 0.08828143775463 0.91596800088882 0
vt 0.08917197585106 0.96510565280914 0
vt 0.08975368738174 0.9972031712532 0
vt 0.08525168895721 0.74879318475723 0
vt 0.07535673677921 0.20281076431274 0
vt 0.07323740422726 0.0858701467514 0
vt 0.07269841432571 0.05613029003143 0
vt 0.001953125 0.79830038547516 0
vt 0.33685034513474 0.91146314144135 0
# 91 texture coordinates

o 25F_bottom_col.1
usemtl default
f 47/4/1 29/3/1 28/2/1 48/1/1
f 19/8/1 18/7/1 4/6/1 5/5/1
f 4/6/1 8/10/1 7/9/1 5/5/1
f 10/14/1 13/13/1 12/12/1 9/11/1
f 30/18/1 46/17/1 45/16/1 31/15/1
f 13/13/1 59/20/1 61/19/1 12/12/1
f 57/22/1 31/15/1 45/16/1 50/21/1
f 18/7/1 17/24/1 15/23/1 4/6/1
f 18/7/1 9/11/1 16/25/1 17/24/1
f 19/8/1 10/14/1 9/11/1 18/7/1
f 29/3/1 47/4/1 46/17/1 30/18/1
f 16/25/1 22/27/1 21/26/1 17/24/1
f 24/31/1 6/30/1 2/29/1 23/28/1
f 32/35/1 44/34/1 43/33/1 33/32/1
f 61/19/1 63/37/1 26/36/1 12/12/1
f 29/3/1 19/8/1 5/5/1 28/2/1
f 30/18/1 10/14/1 19/8/1 29/3/1
f 31/15/1 13/13/1 10/14/1 30/18/1
f 57/22/1 59/20/1 13/13/1 31/15/1
f 33/32/1 6/30/1 24/31/1 32/35/1
f 81/41/1 1/40/1 34/39/1 91/38/1
f 20/45/1 37/44/1 36/43/1 11/42/1
f 51/49/1 14/48/1 39/47/1 54/46/1
f 25/52/1 38/51/1 40/50/1 1/40/1
f 54/46/1 39/47/1 42/54/1 56/53/1
f 44/34/1 82/55/1 81/41/1 43/33/1
f 86/57/1 50/21/1 45/16/1 87/56/1
f 46/17/1 88/58/1 87/56/1 45/16/1
f 47/4/1 89/59/1 88/58/1 46/17/1
f 48/1/1 90/60/1 89/59/1 47/4/1
f 86/57/1 85/62/1 66/61/1 50/21/1
f 54/46/1 70/64/1 67/63/1 51/49/1
f 56/53/1 72/65/1 70/64/1 54/46/1
f 49/67/1 44/34/1 32/35/1 58/66/1
f 58/66/1 32/35/1 24/31/1 60/68/1
f 60/68/1 24/31/1 23/28/1 62/69/1
f 62/69/1 23/28/1 27/71/1 64/70/1
f 83/72/1 82/55/1 44/34/1 49/67/1
f 53/74/1 38/51/1 25/52/1 52/73/1
f 55/76/1 41/75/1 38/51/1 53/74/1
f 73/77/1 57/22/1 50/21/1 66/61/1
f 75/78/1 59/20/1 57/22/1 73/77/1
f 77/79/1 61/19/1 59/20/1 75/78/1
f 79/80/1 63/37/1 61/19/1 77/79/1
f 85/62/1 84/82/1 65/81/1 66/61/1
f 70/64/1 69/84/1 68/83/1 67/63/1
f 72/65/1 71/85/1 69/84/1 70/64/1
f 65/81/1 49/67/1 58/66/1 74/86/1
f 74/86/1 58/66/1 60/68/1 76/87/1
f 76/87/1 60/68/1 62/69/1 78/88/1
f 78/88/1 62/69/1 64/70/1 80/89/1
f 84/82/1 83/72/1 49/67/1 65/81/1
f 69/84/1 53/74/1 52/73/1 68/83/1
f 71/85/1 55/76/1 53/74/1 69/84/1
f 74/86/1 73/77/1 66/61/1 65/81/1
f 76/87/1 75/78/1 73/77/1 74/86/1
f 78/88/1 77/79/1 75/78/1 76/87/1
f 80/89/1 79/80/1 77/79/1 78/88/1
f 82/55/1 25/52/1 1/40/1 81/41/1
f 91/38/1 35/90/1 43/33/1 81/41/1
f 84/82/1 68/83/1 52/73/1 83/72/1
f 85/62/1 67/63/1 68/83/1 84/82/1
f 86/57/1 51/49/1 67/63/1 85/62/1
f 90/60/1 3/91/1 20/45/1 89/59/1
f 88/58/1 11/42/1 14/48/1 87/56/1
f 89/59/1 20/45/1 11/42/1 88/58/1

