# WaveFront *.obj file (generated by CINEMA 4D)

mtllib ./EV_col.mtl

v 5.35890293121338 -3.11313891410828 22.15387725830078
v 5.35890293121338 -4.88550233840942 22.15387725830078
v 5.35890293121338 -3.11313891410828 -0.83005195856094
v 5.35890293121338 -4.88550233840942 -0.83005195856094
v 11.93454742431641 -3.11313891410828 -0.83005195856094
v 11.93454742431641 -4.88550233840942 -0.83005195856094
v 11.93454742431641 -3.11313891410828 22.15387725830078
v 11.93454742431641 -4.88550233840942 22.15387725830078
# 8 vertices

vn -1 0 0
vn 0 0 -1
vn 1 0 0
vn 0 0 1
vn 0 -1 0
vn 0 1 0
# 6 normals

vt 0 0 0
vt 0 1 0
vt 1 1 0
vt 1 0 0
# 4 texture coordinates

o EV_col.6
usemtl default
f 3/4/1 4/3/1 2/2/1 1/1/1
f 5/4/2 6/3/2 4/2/2 3/1/2
f 7/4/3 8/3/3 6/2/3 5/1/3
f 1/4/4 2/3/4 8/2/4 7/1/4
f 4/4/5 6/3/5 8/2/5 2/1/5
f 5/4/6 3/3/6 1/2/6 7/1/6

v -11.91294956207275 -3.11313891410828 22.15387725830078
v -11.91294956207275 -4.88550233840942 22.15387725830078
v -11.91294956207275 -3.11313891410828 -0.83005195856094
v -11.91294956207275 -4.88550233840942 -0.83005195856094
v -5.33730506896973 -3.11313891410828 -0.83005195856094
v -5.33730506896973 -4.88550233840942 -0.83005195856094
v -5.33730506896973 -3.11313891410828 22.15387725830078
v -5.33730506896973 -4.88550233840942 22.15387725830078
# 8 vertices

# 0 normal

# 0 texture coordinate

o EV_col.5
usemtl default
f 11/4/1 12/3/1 10/2/1 9/1/1
f 13/4/2 14/3/2 12/2/2 11/1/2
f 15/4/3 16/3/3 14/2/3 13/1/3
f 9/4/4 10/3/4 16/2/4 15/1/4
f 12/4/5 14/3/5 16/2/5 10/1/5
f 13/4/6 11/3/6 9/2/6 15/1/6

v -11.54421424865723 13.52196407318115 22.15387725830078
v -11.54421424865723 10.82883930206299 22.15387725830078
v -11.54421424865723 13.52196407318115 -0.83005195856094
v -11.54421424865723 10.82883930206299 -0.83005195856094
v 11.21558380126953 13.52196407318115 -0.83005195856094
v 11.21558380126953 10.82883930206299 -0.83005195856094
v 11.21558380126953 13.52196407318115 22.15387725830078
v 11.21558380126953 10.82883930206299 22.15387725830078
# 8 vertices

vn 0 -1 0
vn 0 1 0
# 2 normals

# 0 texture coordinate

o EV_col.4
usemtl default
f 19/4/1 20/3/1 18/2/1 17/1/1
f 21/4/2 22/3/2 20/2/2 19/1/2
f 23/4/3 24/3/3 22/2/3 21/1/3
f 17/4/4 18/3/4 24/2/4 23/1/4
f 20/4/7 22/3/7 24/2/7 18/1/7
f 21/4/8 19/3/8 17/2/8 23/1/8

v 9.43961524963379 -4.80453681945801 22.15387725830078
v 11.67765998840332 -4.80453681945801 22.15387725830078
v 9.43961524963379 -4.80453681945801 -0.83005195856094
v 11.67765998840332 -4.80453681945801 -0.83005195856094
v 9.43961524963379 13.25343704223633 -0.83005195856094
v 11.67765998840332 13.25343704223633 -0.83005195856094
v 9.43961524963379 13.25343704223633 22.15387725830078
v 11.67765998840332 13.25343704223633 22.15387725830078
# 8 vertices

vn 0 -1 0
vn 0 1 0
# 2 normals

# 0 texture coordinate

o EV_col.3
usemtl default
f 27/4/9 28/3/9 26/2/9 25/1/9
f 29/4/2 30/3/2 28/2/2 27/1/2
f 31/4/10 32/3/10 30/2/10 29/1/10
f 25/4/4 26/3/4 32/2/4 31/1/4
f 28/4/3 30/3/3 32/2/3 26/1/3
f 29/4/1 27/3/1 25/2/1 31/1/1

v -11.61116504669189 -4.80453681945801 22.15387725830078
v -9.30715084075928 -4.80453681945801 22.15387725830078
v -11.61116504669189 -4.80453681945801 -0.83005195856094
v -9.30715084075928 -4.80453681945801 -0.83005195856094
v -11.61116504669189 13.25343704223633 -0.83005195856094
v -9.30715084075928 13.25343704223633 -0.83005195856094
v -11.61116504669189 13.25343704223633 22.15387725830078
v -9.30715084075928 13.25343704223633 22.15387725830078
# 8 vertices

# 0 normal

# 0 texture coordinate

o EV_col.2
usemtl default
f 35/4/9 36/3/9 34/2/9 33/1/9
f 37/4/2 38/3/2 36/2/2 35/1/2
f 39/4/10 40/3/10 38/2/10 37/1/10
f 33/4/4 34/3/4 40/2/4 39/1/4
f 36/4/3 38/3/3 40/2/3 34/1/3
f 37/4/1 35/3/1 33/2/1 39/1/1

v -11.42810916900635 -4.80453681945801 21.3249340057373
v -11.42810916900635 -4.80453681945801 21.95254135131836
v 11.55581951141357 -4.80453681945801 21.3249340057373
v 11.55581951141357 -4.80453681945801 21.95254135131836
v 11.55581951141357 13.25343704223633 21.3249340057373
v 11.55581951141357 13.25343704223633 21.95254135131836
v -11.42810916900635 13.25343704223633 21.3249340057373
v -11.42810916900635 13.25343704223633 21.95254135131836
# 8 vertices

# 0 normal

# 0 texture coordinate

o EV_col.1
usemtl default
f 43/4/9 44/3/9 42/2/9 41/1/9
f 45/4/3 46/3/3 44/2/3 43/1/3
f 47/4/10 48/3/10 46/2/10 45/1/10
f 41/4/1 42/3/1 48/2/1 47/1/1
f 44/4/4 46/3/4 48/2/4 42/1/4
f 45/4/2 43/3/2 41/2/2 47/1/2

v -11.42810916900635 -4.80453681945801 -0.58882486820221
v -11.42810916900635 -4.80453681945801 0.03878247737885
v 11.55581951141357 -4.80453681945801 -0.58882486820221
v 11.55581951141357 -4.80453681945801 0.03878247737885
v 11.55581951141357 13.25343704223633 -0.58882486820221
v 11.55581951141357 13.25343704223633 0.03878247737885
v -11.42810916900635 13.25343704223633 -0.58882486820221
v -11.42810916900635 13.25343704223633 0.03878247737885
# 8 vertices

# 0 normal

# 0 texture coordinate

o EV_col
usemtl default
f 51/4/9 52/3/9 50/2/9 49/1/9
f 53/4/3 54/3/3 52/2/3 51/1/3
f 55/4/10 56/3/10 54/2/10 53/1/10
f 49/4/1 50/3/1 56/2/1 55/1/1
f 52/4/4 54/3/4 56/2/4 50/1/4
f 53/4/2 51/3/2 49/2/2 55/1/2

