# WaveFront *.obj file (generated by CINEMA 4D)

mtllib ./EV_door_L_col.mtl

v -0.00883380137384 -0.27154096961021 -0.03505750745535
v -0.00883380137384 -0.27154096961021 22.91806602478027
v 5.67748308181763 -0.27154096961021 -0.03505750745535
v 5.67748308181763 -0.27154096961021 22.91806602478027
v 5.67748308181763 -0.00154098321218 -0.03505750745535
v 5.67748308181763 -0.00154098321218 22.91806602478027
v -0.00883380137384 -0.00154098321218 -0.03505750745535
v -0.00883380137384 -0.00154098321218 22.91806602478027
# 8 vertices

vn 0 -1 0
vn 1 0 0
vn 0 1 0
vn -1 0 0
vn 0 0 1
vn 0 0 -1
# 6 normals

o B1_EV1_door_L_col
usemtl default
f 3//1 4//1 2//1 1//1
f 5//2 6//2 4//2 3//2
f 7//3 8//3 6//3 5//3
f 1//4 2//4 8//4 7//4
f 4//5 6//5 8//5 2//5
f 5//6 3//6 1//6 7//6

