# WaveFront *.obj file (generated by CINEMA 4D)

mtllib ./25F_glass.mtl

v 0.13538770377636 -97.62860870361328 1501.33935546875
v 0.13534820079803 -97.12861633300781 1501.33935546875
v -581.05328369140625 -97.63618469238281 1501.33935546875
v -580.55328369140625 -97.63616943359375 1501.33935546875
v -580.5533447265625 -97.13617706298828 1501.33935546875
v -581.0533447265625 -97.13617706298828 1501.33935546875
v -580.55322265625 -117.04826354980469 1501.33935546875
v -581.05322265625 -117.04824829101562 1501.33935546875
v -581.05328369140625 -116.54824829101562 1501.33935546875
v -580.55328369140625 -116.54826354980469 1501.33935546875
v -601.2197265625 -117.04831695556641 1501.33935546875
v -601.2197265625 -116.54831695556641 1501.33935546875
v -600.7197265625 -116.54830169677734 1501.33935546875
v -600.7197265625 -117.04830169677734 1501.33935546875
v -601.21978759765625 -96.69756317138672 1501.33935546875
v -600.71978759765625 -96.69755554199219 1501.33935546875
v -589.96063232421875 -97.63628387451172 1501.33935546875
v -589.960693359375 -97.13628387451172 1501.33935546875
v 0.13538770377636 -97.62860870361328 1537.33935546875
v 0.13534820079803 -97.12861633300781 1537.33935546875
v -581.05328369140625 -97.63618469238281 1537.33935546875
v -580.55328369140625 -97.63616943359375 1537.33935546875
v -580.5533447265625 -97.13617706298828 1537.33935546875
v -581.0533447265625 -97.13617706298828 1537.33935546875
v -580.55322265625 -117.04826354980469 1537.33935546875
v -581.05322265625 -117.04824829101562 1537.33935546875
v -581.05328369140625 -116.54824829101562 1537.33935546875
v -580.55328369140625 -116.54826354980469 1537.33935546875
v -601.2197265625 -117.04831695556641 1537.33935546875
v -601.2197265625 -116.54831695556641 1537.33935546875
v -600.7197265625 -116.54830169677734 1537.33935546875
v -600.7197265625 -117.04830169677734 1537.33935546875
v -601.21978759765625 -96.69756317138672 1537.33935546875
v -600.71978759765625 -96.69755554199219 1537.33935546875
v -589.96063232421875 -97.63628387451172 1537.33935546875
v -589.960693359375 -97.13628387451172 1537.33935546875
# 36 vertices

vn 0 0 -1
vn 0 0 1
vn -0.0000065114541 1 0
vn -0.00001302290821 1 0
vn 1 0.00007898807235 0
vn 0.00001301239718 -1 0
vn -0.00000586801525 1 0
vn 1 0.00005011904796 0
vn 1 0.00009765625146 0
vn -0.00004882812573 -1 0
vn -0.00002286230847 -1 0
vn -1 -0.00000258185105 0
vn 1 0.00000258184627 0
vn 0.00001375878583 -1 0
vn 0.00002441406286 -1 0
vn -1 0 0
vn -1 -0.00000122988104 0
vn -0.00000310351606 1 0
vn -1 -0.00000245976207 0
vn -0.00001220703143 1 0
vn 1 0.00000245976298 0
vn 0.00001164881451 -1 0
vn -1 -0.00007898872718 0
vn -0.0000117360305 1 0
# 24 normals

vt 0 1 0
vt 0 0 0
vt 1 0 0
vt 1 1 0
vt 0.75575935840607 1 0
vt 0.75575935840607 0 0
vt 0.84733903408051 1 0
vt 0.84733909368515 0 0
vt 0.85049402713776 1 0
vt 0.85049402713776 0 0
# 10 texture coordinates

o window_glass_R
usemtl default
f 2/4/1 1/3/1 4/2/1 5/1/1
f 6/4/1 5/3/1 4/6/1 3/5/1
f 7/4/1 8/3/1 9/8/1 10/7/1
f 3/2/1 4/1/1 10/7/1 9/8/1
f 11/4/1 12/3/1 13/10/1 14/9/1
f 9/2/1 8/1/1 14/9/1 13/10/1
f 15/4/1 16/3/1 13/2/1 12/1/1
f 17/4/1 18/3/1 6/2/1 3/1/1
f 22/2/2 19/3/2 20/4/2 23/1/2
f 22/6/2 23/3/2 24/4/2 21/5/2
f 27/8/2 26/3/2 25/4/2 28/7/2
f 28/7/2 22/1/2 21/2/2 27/8/2
f 31/10/2 30/3/2 29/4/2 32/9/2
f 32/9/2 26/1/2 27/2/2 31/10/2
f 31/2/2 34/3/2 33/4/2 30/1/2
f 24/2/2 36/3/2 35/4/2 21/1/2
f 20/4/4 2/4/4 5/1/3 23/1/3
f 19/3/5 1/3/5 2/4/5 20/4/5
f 22/2/6 4/2/6 1/3/6 19/3/6
f 23/3/3 5/3/3 6/4/7 24/4/7
f 25/4/9 7/4/9 10/7/8 28/7/8
f 26/3/11 8/3/11 7/4/10 25/4/10
f 21/2/12 3/2/12 9/8/12 27/8/12
f 28/7/8 10/7/8 4/1/13 22/1/13
f 29/4/15 11/4/15 14/9/14 32/9/14
f 30/3/17 12/3/17 11/4/16 29/4/16
f 27/2/18 9/2/18 13/10/18 31/10/18
f 32/9/14 14/9/14 8/1/11 26/1/11
f 33/4/19 15/4/19 12/1/17 30/1/17
f 34/3/20 16/3/20 15/4/20 33/4/20
f 31/2/21 13/2/21 16/3/21 34/3/21
f 35/4/22 17/4/22 3/1/22 21/1/22
f 36/3/23 18/3/23 17/4/23 35/4/23
f 24/2/7 6/2/7 18/3/24 36/3/24

v -580.844482421875 -359.82684326171875 1501.33935546875
v -620.86090087890625 -359.82684326171875 1501.33935546875
v -620.86090087890625 -359.32684326171875 1501.33935546875
v -580.844482421875 -359.32684326171875 1501.33935546875
v -581.344482421875 -359.82684326171875 1501.33935546875
v -581.344482421875 -359.32684326171875 1501.33935546875
v -580.844482421875 -371.60986328125 1501.33935546875
v -581.344482421875 -371.60986328125 1501.33935546875
v -580.844482421875 -372.1973876953125 1501.33935546875
v -581.344482421875 -372.1973876953125 1501.33935546875
v -480.26931762695312 -371.60986328125 1501.33935546875
v -480.26925659179688 -372.1973876953125 1501.33935546875
v -479.76931762695312 -371.60983276367188 1501.33935546875
v -479.76925659179688 -372.19732666015625 1501.33935546875
v -480.26947021484375 -359.32693481445312 1501.33935546875
v -479.76947021484375 -359.32693481445312 1501.33935546875
v -479.76943969726562 -359.82693481445312 1501.33935546875
v -480.26943969726562 -359.82693481445312 1501.33935546875
v 95.10188293457031 -359.31936645507812 1501.33935546875
v 95.10192108154297 -359.81936645507812 1501.33935546875
v -621.36090087890625 -359.82684326171875 1501.33935546875
v -621.36090087890625 -359.32684326171875 1501.33935546875
v -621.36090087890625 -341.06378173828125 1501.33935546875
v -620.86090087890625 -341.063720703125 1501.33935546875
v -630.84637451171875 -359.82684326171875 1501.33935546875
v -630.84637451171875 -359.32684326171875 1501.33935546875
v -620.86090087890625 -341.56375122070312 1501.33935546875
v -621.36090087890625 -341.56378173828125 1501.33935546875
v -640.42034912109375 -341.56378173828125 1501.33935546875
v -640.42034912109375 -341.06378173828125 1501.33935546875
v -639.92034912109375 -341.06378173828125 1501.33935546875
v -639.92034912109375 -341.56378173828125 1501.33935546875
v -639.92034912109375 -361.06378173828125 1501.33935546875
v -640.42034912109375 -361.06378173828125 1501.33935546875
v -580.844482421875 -359.82684326171875 1537.33935546875
v -620.86090087890625 -359.82684326171875 1537.33935546875
v -620.86090087890625 -359.32684326171875 1537.33935546875
v -580.844482421875 -359.32684326171875 1537.33935546875
v -581.344482421875 -359.82684326171875 1537.33935546875
v -581.344482421875 -359.32684326171875 1537.33935546875
v -580.844482421875 -371.60986328125 1537.33935546875
v -581.344482421875 -371.60986328125 1537.33935546875
v -580.844482421875 -372.1973876953125 1537.33935546875
v -581.344482421875 -372.1973876953125 1537.33935546875
v -480.26931762695312 -371.60986328125 1537.33935546875
v -480.26925659179688 -372.1973876953125 1537.33935546875
v -479.76931762695312 -371.60983276367188 1537.33935546875
v -479.76925659179688 -372.19732666015625 1537.33935546875
v -480.26947021484375 -359.32693481445312 1537.33935546875
v -479.76947021484375 -359.32693481445312 1537.33935546875
v -479.76943969726562 -359.82693481445312 1537.33935546875
v -480.26943969726562 -359.82693481445312 1537.33935546875
v 95.10188293457031 -359.31936645507812 1537.33935546875
v 95.10192108154297 -359.81936645507812 1537.33935546875
v -621.36090087890625 -359.82684326171875 1537.33935546875
v -621.36090087890625 -359.32684326171875 1537.33935546875
v -621.36090087890625 -341.06378173828125 1537.33935546875
v -620.86090087890625 -341.063720703125 1537.33935546875
v -630.84637451171875 -359.82684326171875 1537.33935546875
v -630.84637451171875 -359.32684326171875 1537.33935546875
v -620.86090087890625 -341.56375122070312 1537.33935546875
v -621.36090087890625 -341.56378173828125 1537.33935546875
v -640.42034912109375 -341.56378173828125 1537.33935546875
v -640.42034912109375 -341.06378173828125 1537.33935546875
v -639.92034912109375 -341.06378173828125 1537.33935546875
v -639.92034912109375 -341.56378173828125 1537.33935546875
v -639.92034912109375 -361.06378173828125 1537.33935546875
v -640.42034912109375 -361.06378173828125 1537.33935546875
# 68 vertices

vn 0 1 0
vn 1 0 0
vn 0 -1 0
vn 0.00004882812573 -1 0
vn 1 0.00000621596746 0
vn 0.00009765625146 -1 0
vn -1 -0.0000550416953 0
vn -1 -0.00009765147843 0
vn -0.00000656141992 1 0
vn 1 0.00001243193492 0
vn -1 -0.00001243191036 0
vn -0.00001312283985 1 0
vn 1 0.00007324576291 0
vn 0.00001316530961 -1 0
vn -0.00002441406286 1 0
vn -0.00004882812573 1 0
# 16 normals

vt 0.075179874897 0 0
vt 0.075179874897 1 0
vt 0.83573472499847 1 0
vt 0.83573472499847 0 0
vt 0.8536736369133 1 0
vt 0.85367357730865 0 0
# 6 texture coordinates

o window_glass_L
usemtl default
f 41/12/1 42/11/1 40/2/1 37/1/1
f 38/4/1 39/3/1 42/11/1 41/12/1
f 43/4/1 44/3/1 41/2/1 37/1/1
f 45/4/1 46/3/1 44/2/1 43/1/1
f 47/4/1 48/3/1 45/2/1 43/1/1
f 49/4/1 50/3/1 48/2/1 47/1/1
f 51/4/1 52/3/1 53/6/1 54/5/1
f 49/2/1 47/1/1 54/5/1 53/6/1
f 55/4/1 56/3/1 53/2/1 52/1/1
f 57/4/1 58/3/1 39/2/1 38/1/1
f 59/4/1 60/3/1 63/14/1 64/13/1
f 61/4/1 62/3/1 58/2/1 57/1/1
f 39/2/1 58/1/1 64/13/1 63/14/1
f 65/4/1 66/3/1 67/16/1 68/15/1
f 59/2/1 64/1/1 68/15/1 67/16/1
f 69/4/1 70/3/1 65/2/1 68/1/1
f 74/2/2 76/11/2 75/12/2 71/1/2
f 76/11/2 73/3/2 72/4/2 75/12/2
f 75/2/2 78/3/2 77/4/2 71/1/2
f 78/2/2 80/3/2 79/4/2 77/1/2
f 79/2/2 82/3/2 81/4/2 77/1/2
f 82/2/2 84/3/2 83/4/2 81/1/2
f 87/6/2 86/3/2 85/4/2 88/5/2
f 88/5/2 81/1/2 83/2/2 87/6/2
f 87/2/2 90/3/2 89/4/2 86/1/2
f 73/2/2 92/3/2 91/4/2 72/1/2
f 97/14/2 94/3/2 93/4/2 98/13/2
f 92/2/2 96/3/2 95/4/2 91/1/2
f 98/13/2 92/1/2 73/2/2 97/14/2
f 101/16/2 100/3/2 99/4/2 102/15/2
f 102/15/2 98/1/2 93/2/2 101/16/2
f 99/2/2 104/3/2 103/4/2 102/1/2
f 74/2/25 40/2/25 42/11/25 76/11/25
f 71/1/26 37/1/26 40/2/26 74/2/26
f 72/4/27 38/4/27 41/12/27 75/12/27
f 76/11/25 42/11/25 39/3/25 73/3/25
f 77/4/26 43/4/26 37/1/26 71/1/26
f 75/2/16 41/2/16 44/3/16 78/3/16
f 80/3/27 46/3/27 45/4/27 79/4/27
f 78/2/16 44/2/16 46/3/16 80/3/16
f 81/4/25 47/4/25 43/1/25 77/1/25
f 79/2/27 45/2/27 48/3/28 82/3/28
f 84/3/26 50/3/26 49/4/29 83/4/29
f 82/2/28 48/2/28 50/3/30 84/3/30
f 85/4/32 51/4/32 54/5/31 88/5/31
f 86/3/33 52/3/33 51/4/25 85/4/25
f 83/2/29 49/2/29 53/6/34 87/6/34
f 88/5/31 54/5/31 47/1/35 81/1/35
f 89/4/36 55/4/36 52/1/33 86/1/33
f 90/3/37 56/3/37 55/4/37 89/4/37
f 87/2/38 53/2/38 56/3/38 90/3/38
f 91/4/27 57/4/27 38/1/27 72/1/27
f 94/3/40 60/3/40 59/4/39 93/4/39
f 97/14/26 63/14/26 60/3/26 94/3/26
f 95/4/27 61/4/27 57/1/27 91/1/27
f 96/3/16 62/3/16 61/4/16 95/4/16
f 92/2/25 58/2/25 62/3/25 96/3/25
f 73/2/26 39/2/26 63/14/26 97/14/26
f 98/13/16 64/13/16 58/1/16 92/1/16
f 100/3/16 66/3/16 65/4/16 99/4/16
f 101/16/25 67/16/25 66/3/25 100/3/25
f 93/2/39 59/2/39 67/16/25 101/16/25
f 102/15/27 68/15/27 64/1/27 98/1/27
f 103/4/26 69/4/26 68/1/26 102/1/26
f 104/3/27 70/3/27 69/4/27 103/4/27
f 99/2/16 65/2/16 70/3/16 104/3/16

v -486.34817504882812 -280.20489501953125 1526.385986328125
v -486.34817504882812 -280.20489501953125 1502.34912109375
v -486.34817504882812 -285.77069091796875 1526.385986328125
v -486.34817504882812 -285.77069091796875 1502.34912109375
v -486.1102294921875 -280.20489501953125 1526.385986328125
v -486.1102294921875 -280.20489501953125 1502.34912109375
v -486.1102294921875 -285.77069091796875 1526.385986328125
v -486.1102294921875 -285.77069091796875 1502.34912109375
# 8 vertices

vn 0 0.70710676908493 -0.70710676908493
vn 0 0.70710676908493 0.70710676908493
vn 0 -0.70710676908493 0.70710676908493
vn 0 -0.70710676908493 -0.70710676908493
# 4 normals

vt 0.24190697073936 0.98071604967117 0
vt 0.24190698564053 0.01928400993347 0
vt 0.01928392797709 0.01928400993347 0
vt 0.01928392611444 0.98071604967117 0
vt 0.25142526626587 0.01928400993347 0
vt 0.25142526626587 0.98071604967117 0
vt 0.47404831647873 0.98071604967117 0
vt 0.47404834628105 0.01928400993347 0
vt 0.00976562686265 0.01928400993347 0
vt 0.009765625 0.98071604967117 0
vt 0.24190698564053 0.009765625 0
vt 0.01928392797709 0.009765625 0
vt 0.01928392611444 0.990234375 0
vt 0.24190697073936 0.990234375 0
# 14 texture coordinates

o frame_33_glass_UV
usemtl default
f 110/20/26 109/19/26 111/18/26 112/17/26
f 105/24/16 106/23/16 108/22/16 107/21/16
f 106/26/41 105/25/42 109/19/42 110/20/41
f 105/28/42 107/27/43 111/18/43 109/19/42
f 108/30/44 106/29/41 110/20/41 112/17/44
f 112/17/44 111/18/43 107/21/43 108/22/44

v -486.34817504882812 -298.8670654296875 1526.385986328125
v -486.34817504882812 -298.8670654296875 1502.34912109375
v -486.34817504882812 -304.432861328125 1526.385986328125
v -486.34817504882812 -304.432861328125 1502.34912109375
v -486.1102294921875 -298.8670654296875 1526.385986328125
v -486.1102294921875 -298.8670654296875 1502.34912109375
v -486.1102294921875 -304.432861328125 1526.385986328125
v -486.1102294921875 -304.432861328125 1502.34912109375
# 8 vertices

# 0 normal

# 0 texture coordinate

o frame_33_glass_UV.1
usemtl default
f 118/20/26 117/19/26 119/18/26 120/17/26
f 113/24/16 114/23/16 116/22/16 115/21/16
f 114/26/41 113/25/42 117/19/42 118/20/41
f 113/28/42 115/27/43 119/18/43 117/19/42
f 116/30/44 114/29/41 118/20/41 120/17/44
f 120/17/44 119/18/43 115/21/43 116/22/44

