# WaveFront *.obj file (generated by CINEMA 4D)

mtllib ./B1_EV_door_L_out_col.mtl

v -0.01077015511692 0.25612026453018 -0.00000000000001
v -0.01077015511692 0.25612026453018 22.99999618530273
v 5.68783617019653 0.25612026453018 22.99999618530273
v 5.68783617019653 0.25612026453018 -0.00000000000001
v 5.68783617019653 -0.0121787423268 -0.00000000000001
v 5.68783617019653 -0.0121787423268 22.99999618530273
v -0.01077015511692 -0.0121787423268 -0.00000000000001
v -0.01077015511692 -0.0121787423268 22.99999618530273
# 8 vertices

vn 0 1 0
vn 0 0 1
vn 0 -1 0
vn 0 0 -1
vn -1 0 0
vn 1 0 0
# 6 normals

vt 0.11851728707552 0.01254987716675 0
vt 0.001953125 0.01254987716675 0
vt 0.001953125 0.5 0
vt 0.11851728707552 0.5 0
vt 0.11851728707552 0.51059675216675 0
vt 0.001953125 0.51059675216675 0
vt 0.11851728707552 0.998046875 0
vt 0.001953125 0.998046875 0
vt 0.11851728707552 0.001953125 0
vt 0.001953125 0.001953125 0
vt 0.13604153692722 0.48940324783325 0
vt 0.14663827419281 0.48940324783325 0
vt 0.14663827419281 0.001953125 0
vt 0.13604153692722 0.001953125 0
vt 0.12203229963779 0.48940324783325 0
vt 0.13262903690338 0.48940324783325 0
vt 0.13262903690338 0.001953125 0
vt 0.12203229963779 0.001953125 0
# 18 texture coordinates

o B1_EV1_door_L_out_col
usemtl default
f 2/4/1 3/3/1 4/2/1 1/1/1
f 6/6/2 3/3/2 2/4/2 8/5/2
f 5/8/3 6/6/3 8/5/3 7/7/3
f 5/10/4 7/9/4 1/1/4 4/2/4
f 8/14/5 2/13/5 1/12/5 7/11/5
f 3/18/6 6/17/6 5/16/6 4/15/6

